<?xml version="1.0" standalone="no"?>
<!DOCTYPE svg PUBLIC "-//W3C//DTD SVG 20010904//EN"
 "http://www.w3.org/TR/2001/REC-SVG-20010904/DTD/svg10.dtd">
<svg version="1.0" xmlns="http://www.w3.org/2000/svg"
 width="700.000000pt" height="700.000000pt" viewBox="0 0 700.000000 700.000000"
 preserveAspectRatio="xMidYMid meet">
<metadata>
Created by potrace 1.11, written by Peter Selinger 2001-2013
</metadata>
<g transform="translate(0.000000,700.000000) scale(0.100000,-0.100000)"
fill="#000000" stroke="none">
<path d="M4621 6430 c-35 -11 -66 -21 -69 -24 -2 -3 -6 -32 -7 -64 -3 -63 -19
-104 -57 -139 -78 -73 -206 -71 -577 12 -280 63 -409 78 -671 79 -188 1 -252
-3 -322 -17 -638 -130 -1071 -527 -1179 -1080 -24 -125 -26 -402 -4 -533 70
-401 294 -705 744 -1005 210 -140 396 -225 916 -419 517 -193 622 -236 785
-318 470 -236 702 -482 792 -839 19 -75 23 -114 22 -263 -1 -204 -16 -276 -88
-425 -114 -233 -321 -410 -596 -510 -297 -107 -704 -98 -1071 25 -350 116
-642 320 -932 650 -191 218 -398 508 -591 830 -48 80 -91 149 -96 154 -12 12
-143 -51 -137 -66 2 -7 140 -433 306 -947 167 -514 307 -944 311 -957 8 -20
13 -22 42 -14 18 5 52 14 76 20 l42 11 0 56 c0 84 28 135 93 167 90 45 106 43
612 -93 341 -92 566 -125 870 -125 252 -1 423 29 636 109 323 123 635 368 808
635 234 360 307 910 175 1310 -109 328 -388 638 -774 862 -240 140 -383 201
-1025 439 -547 202 -762 300 -977 442 -141 92 -290 234 -356 337 -143 221
-173 542 -75 788 53 131 161 266 288 360 393 290 1098 267 1629 -52 144 -87
244 -165 377 -293 200 -194 356 -389 567 -708 69 -104 127 -192 129 -194 5 -8
132 54 133 65 0 19 -668 1748 -677 1750 -4 1 -37 -6 -72 -16z"/>
</g>
</svg>
